<?xml version="1.0" encoding="utf-8"?>
<!-- Generator: Adobe Illustrator 22.1.0, SVG Export Plug-In . SVG Version: 6.00 Build 0)  -->
<svg version="1.1" id="Layer_1" xmlns="http://www.w3.org/2000/svg" xmlns:xlink="http://www.w3.org/1999/xlink" x="0px" y="0px"
	 viewBox="0 0 512 512" style="enable-background:new 0 0 512 512;" xml:space="preserve">
<style type="text/css">
	.st0{fill:#063251;}
</style>
<path class="st0" d="M286,376v-30c0-8.3-6.7-15-15-15c-5.3,0-10.3-1.1-15-2.8v61.2c4.8,1,9.9,1.5,15,1.5
	C279.3,391,286,384.3,286,376z"/>
<path class="st0" d="M226,375.6c0-4.8,0-251.3,0-240.2c-18.1,13.7-30,35.2-30,59.6v121C196,340.4,207.9,361.9,226,375.6z"/>
<path class="st0" d="M286,165v-30c0-8.3-6.7-15-15-15c-5.1,0-10.2,0.5-15,1.5v61.2c4.7-1.7,9.7-2.8,15-2.8
	C279.3,180,286,173.3,286,165z"/>
<path class="st0" d="M31,421c-8.3,0-15,6.7-15,15s6.7,15,15,15h15v16c0,24.8,20.2,45,45,45h315V0C403,0,91,0,91,0
	C66.2,0,46,20.2,46,45v15H31c-8.3,0-15,6.7-15,15s6.7,15,15,15h15v60H31c-8.3,0-15,6.7-15,15s6.7,15,15,15h15v61H31
	c-8.3,0-15,6.7-15,15c0,8.3,6.7,15,15,15h15v60H31c-8.3,0-15,6.7-15,15s6.7,15,15,15h15v60H31z M166,195c0-59.9,50.1-105,105-105
	c24.8,0,45,20.2,45,45v30c0,24.8-20.2,45-45,45c-8.3,0-15,6.7-15,15v61c0,8.3,6.7,15,15,15c24.8,0,45,20.2,45,45v30
	c0,24.8-20.2,45-45,45c-54.7,0-105-44.9-105-105V195z"/>
<path class="st0" d="M496,75V30c0-16.6-13.4-30-30-30h-30v105h30C482.6,105,496,91.6,496,75z"/>
<path class="st0" d="M436,241h30c16.6,0,30-14.4,30-31v-45c0-16.6-13.4-30-30-30h-30V241z"/>
<path class="st0" d="M436,376h30c16.6,0,30-13.4,30-30v-45c0-16.6-13.4-30-30-30h-30V376z"/>
<path class="st0" d="M436,512h30c16.6,0,30-13.4,30-30v-46c0-16.6-13.4-30-30-30h-30V512z"/>
</svg>
